<svg width="50" height="50" viewBox="0 0 50 50" fill="none" xmlns="http://www.w3.org/2000/svg">
<path d="M25 50C38.8071 50 50 38.8071 50 25C50 11.1929 38.8071 0 25 0C11.1929 0 0 11.1929 0 25C0 38.8071 11.1929 50 25 50Z" fill="#3C5A9A"/>
<path d="M33.1279 7.67383H27.5898C24.3033 7.67383 20.6477 9.05608 20.6477 13.82C20.6638 15.4799 20.6477 17.0697 20.6477 18.8588H16.8457V24.909H20.7654V42.3264H27.968V24.794H32.722L33.1521 18.8418H27.8439C27.8439 18.8418 27.8558 16.194 27.8439 15.4251C27.8439 13.5425 29.8028 13.6503 29.9207 13.6503C30.8528 13.6503 32.6653 13.653 33.1306 13.6503V7.67383H33.1279Z" fill="white"/>
</svg>
