<svg width="19" height="19" viewBox="0 0 19 19" fill="none" xmlns="http://www.w3.org/2000/svg">
<path opacity="0.4" d="M11.1757 3.53024C10.7472 3.45109 10.3537 3.7245 10.2722 4.14272C10.1906 4.56093 10.4649 4.96925 10.8817 5.05109C12.1365 5.29572 13.1054 6.26706 13.351 7.52619V7.52709C13.4209 7.88954 13.74 8.15306 14.1075 8.15306C14.1568 8.15306 14.2061 8.14857 14.2563 8.13957C14.6731 8.05593 14.9473 7.64851 14.8658 7.2294C14.4992 5.34879 13.0516 3.89629 11.1757 3.53024Z" fill="white"/>
<path opacity="0.4" d="M11.1238 0.396785C10.923 0.368005 10.7213 0.427364 10.5609 0.555077C10.396 0.684588 10.2929 0.871659 10.2705 1.08122C10.223 1.50482 10.5286 1.88796 10.9517 1.93563C13.8692 2.2612 16.1369 4.53394 16.4649 7.46053C16.5088 7.85266 16.8378 8.14856 17.2304 8.14856C17.2599 8.14856 17.2886 8.14676 17.3182 8.14317C17.5234 8.12068 17.7063 8.01905 17.8354 7.85716C17.9635 7.69527 18.0218 7.49381 17.9985 7.28785C17.5898 3.63636 14.7637 0.802407 11.1238 0.396785Z" fill="white"/>
<path d="M14.0442 11.7962C13.4607 11.672 12.9991 11.9419 12.5904 12.1775C12.1718 12.4203 11.375 13.0634 10.9197 12.8979C8.58388 11.941 6.38702 9.90386 5.43603 7.56906C5.26842 7.10408 5.91108 6.30633 6.15219 5.88542C6.38792 5.4771 6.65323 5.01212 6.53222 4.42752C6.42287 3.90138 5.00849 2.10891 4.50835 1.61875C4.17761 1.29497 3.8406 1.11689 3.49373 1.08721C2.18959 1.03235 0.733088 2.76546 0.477639 3.18007C-0.163224 4.06417 -0.158742 5.24056 0.488395 6.66698C2.04798 10.4983 7.9466 16.2805 11.8079 17.8922C12.5196 18.224 13.1721 18.3904 13.7574 18.3904C14.3301 18.3904 14.8401 18.2312 15.2784 17.9156C15.6083 17.7258 17.4206 16.2031 17.3722 14.8693C17.3444 14.5294 17.1661 14.1894 16.8452 13.8602C16.3558 13.3575 14.5686 11.9068 14.0442 11.7962Z" fill="white"/>
</svg>
