<svg width="20" height="19" viewBox="0 0 20 19" fill="none" xmlns="http://www.w3.org/2000/svg">
<path opacity="0.4" d="M20 13.3301C20 16.1201 17.76 18.3801 14.97 18.3901H14.96H5.05C2.27 18.3901 0 16.1401 0 13.3501V13.3401C0 13.3401 0.006 8.91414 0.014 6.68814C0.015 6.27014 0.495 6.03614 0.822 6.29614C3.198 8.18114 7.447 11.6181 7.5 11.6631C8.21 12.2321 9.11 12.5531 10.03 12.5531C10.95 12.5531 11.85 12.2321 12.56 11.6521C12.613 11.6171 16.767 8.28314 19.179 6.36714C19.507 6.10614 19.989 6.34014 19.99 6.75714C20 8.96614 20 13.3301 20 13.3301Z" fill="white"/>
<path d="M19.473 3.06365C18.607 1.43165 16.903 0.389648 15.027 0.389648H5.04695C3.17095 0.389648 1.46695 1.43165 0.600954 3.06365C0.406954 3.42865 0.498954 3.88365 0.821954 4.14165L8.24695 10.0806C8.76695 10.5006 9.39695 10.7096 10.027 10.7096C10.031 10.7096 10.034 10.7096 10.037 10.7096C10.04 10.7096 10.044 10.7096 10.047 10.7096C10.677 10.7096 11.307 10.5006 11.827 10.0806L19.252 4.14165C19.575 3.88365 19.667 3.42865 19.473 3.06365Z" fill="white"/>
</svg>
