<svg width="30" height="30" viewBox="0 0 30 30" fill="none" xmlns="http://www.w3.org/2000/svg">
<path d="M15 0C6.72873 0 0 6.72873 0 15C0 23.2713 6.72873 30 15 30C23.2713 30 30 23.2713 30 15C30 6.72873 23.2713 0 15 0ZM19.6338 15.8838L13.3837 22.1337C13.14 22.3775 12.82 22.5 12.5 22.5C12.18 22.5 11.86 22.3775 11.6162 22.1337C11.1275 21.645 11.1275 20.855 11.6162 20.3663L16.9825 15L11.6163 9.63375C11.1275 9.14502 11.1275 8.355 11.6163 7.86627C12.105 7.37754 12.895 7.37754 13.3837 7.86627L19.6338 14.1163C20.1225 14.605 20.1225 15.395 19.6338 15.8838Z" fill="#D40000"/>
</svg>
