<svg width="30" height="30" viewBox="0 0 30 30" fill="none" xmlns="http://www.w3.org/2000/svg">
<path d="M15 30C23.2713 30 30 23.2713 30 15C30 6.72873 23.2713 0 15 0C6.72873 0 0 6.72873 0 15C0 23.2713 6.72873 30 15 30ZM10.3662 14.1162L16.6163 7.86627C16.86 7.62252 17.18 7.5 17.5 7.5C17.82 7.5 18.14 7.62252 18.3838 7.86627C18.8725 8.355 18.8725 9.14502 18.3838 9.63375L13.0175 15L18.3837 20.3663C18.8725 20.855 18.8725 21.645 18.3837 22.1337C17.895 22.6225 17.105 22.6225 16.6163 22.1337L10.3662 15.8837C9.8775 15.395 9.8775 14.605 10.3662 14.1162Z" fill="#999999"/>
</svg>
