<svg width="13" height="19" viewBox="0 0 13 19" fill="none" xmlns="http://www.w3.org/2000/svg">
<path fill-rule="evenodd" clip-rule="evenodd" d="M3.17846 1.23274C5.14483 0.0901954 7.56182 0.110165 9.50974 1.28505C11.4385 2.48387 12.6108 4.62341 12.5998 6.92495C12.555 9.21139 11.298 11.3606 9.72672 13.0221C8.81985 13.9854 7.80535 14.8372 6.70396 15.5601C6.59053 15.6257 6.46627 15.6696 6.33734 15.6896C6.21324 15.6844 6.09238 15.6477 5.98568 15.5829C4.30418 14.4968 2.829 13.1103 1.6311 11.4902C0.628729 10.1379 0.0592511 8.50405 1.04724e-06 6.81063C-0.00130125 4.50467 1.21209 2.37529 3.17846 1.23274ZM4.31848 7.76512C4.64925 8.58057 5.43 9.11247 6.29618 9.11248C6.86363 9.11655 7.4091 8.88926 7.81106 8.48124C8.21302 8.07323 8.43807 7.51839 8.43606 6.94036C8.43909 6.05805 7.91965 5.2609 7.12027 4.92111C6.3209 4.58133 5.39928 4.76593 4.78572 5.38873C4.17217 6.01153 3.98771 6.94967 4.31848 7.76512Z" fill="white"/>
<ellipse opacity="0.4" cx="6.29688" cy="17.4898" rx="4.5" ry="0.9" fill="white"/>
</svg>
