<svg width="50" height="50" viewBox="0 0 50 50" fill="none" xmlns="http://www.w3.org/2000/svg">
<circle cx="25" cy="25" r="25" fill="url(#paint0_linear)"/>
<path d="M24.775 10.2315C18.7233 10.2315 12.9767 9.69321 10.7817 15.3265C9.875 17.6532 10.0067 20.6749 10.0067 25.0015C10.0067 28.7982 9.885 32.3665 10.7817 34.6749C12.9717 40.3115 18.765 39.7715 24.7717 39.7715C30.5667 39.7715 36.5417 40.3749 38.7633 34.6749C39.6717 32.3249 39.5383 29.3482 39.5383 25.0015C39.5383 19.2315 39.8567 15.5065 37.0583 12.7099C34.225 9.87654 30.3933 10.2315 24.7683 10.2315H24.775ZM23.4517 12.8932C30.695 12.8815 36.47 11.8815 36.795 19.0315C36.915 21.6799 36.915 28.3165 36.795 30.9649C36.48 37.8599 31.23 37.1032 24.7767 37.1032C19.09 37.1032 16.27 37.3049 14.37 35.4032C12.4417 33.4749 12.6717 30.7182 12.6717 24.9949C12.6717 18.2099 12.03 13.2849 18.81 12.9732C20.1717 12.9115 20.7 12.8932 23.4517 12.8899V12.8932ZM32.6583 15.3449C31.68 15.3449 30.8867 16.1382 30.8867 17.1165C30.8867 18.0949 31.68 18.8882 32.6583 18.8882C33.6367 18.8882 34.43 18.0949 34.43 17.1165C34.43 16.1382 33.6367 15.3449 32.6583 15.3449ZM24.775 17.4165C20.5867 17.4165 17.1917 20.8132 17.1917 25.0015C17.1917 29.1899 20.5867 32.5849 24.775 32.5849C28.9633 32.5849 32.3567 29.1899 32.3567 25.0015C32.3567 20.8132 28.9633 17.4165 24.775 17.4165ZM24.775 20.0782C27.4933 20.0782 29.6967 22.2832 29.6967 25.0015C29.6967 27.7199 27.4933 29.9249 24.775 29.9249C22.0567 29.9249 19.8533 27.7199 19.8533 25.0015C19.8533 22.2815 22.0567 20.0782 24.775 20.0782Z" fill="white"/>
<defs>
<linearGradient id="paint0_linear" x1="42.5" y1="6.66667" x2="10.8333" y2="45.8333" gradientUnits="userSpaceOnUse">
<stop stop-color="#CD3AA2"/>
<stop offset="0.565217" stop-color="#FD5343"/>
<stop offset="1" stop-color="#FFD153"/>
</linearGradient>
</defs>
</svg>
