<svg width="103" height="33" viewBox="0 0 103 33" fill="none" xmlns="http://www.w3.org/2000/svg">
<path d="M48.2386 0.00244141H0V31.5735H48.2386V0.00244141Z" fill="white"/>
<path d="M13.9245 31.5735L0 0.00244141H6.57125L13.9063 16.9155L21.2626 0.00244141H27.9096L13.9245 31.5735Z" fill="#9C0000"/>
<path d="M25.1784 31.562V17.3374L18.877 31.562H25.1784Z" fill="#9C0000"/>
<path d="M44.1383 32.1652V0H37.7974V17.4587L28.8862 8.96878L26.1855 15.0642L44.1383 32.1652Z" fill="#9C0000"/>
<path d="M56.173 19.9143H51.4961V16.7954H64.2264V19.9143H59.5556V32.1657H56.173V19.9143Z" fill="white"/>
<path d="M66.3242 16.7954H69.7038V32.1657H66.3242V16.7954Z" fill="white"/>
<path d="M72.8926 16.7954H76.5298L80.5701 23.2939L84.6105 16.7954H88.2477V32.1657H84.9015V22.13L80.5701 28.6982H80.4822L76.2085 22.1967V32.1657H72.8926V16.7954Z" fill="white"/>
<path d="M91.2969 16.7954H102.894V19.8113H94.6583V22.9211H101.902V25.9309H94.6583V29.1589H103V32.1657H91.2969V16.7954Z" fill="white"/>
</svg>
