<svg width="84" height="84" viewBox="0 0 84 84" fill="none" xmlns="http://www.w3.org/2000/svg">
<path d="M83.3333 42.0198C83.3333 64.9736 64.6316 83.6664 41.6667 83.6664C18.7017 83.6664 0 64.9736 0 42.0198C0 19.0257 18.7017 0.333008 41.6667 0.333008C64.6316 0.333008 83.3333 19.0257 83.3333 42.0198Z" fill="#D40000"/>
<path d="M58.3327 42.0199C58.3327 43.073 58.0012 44.1301 57.3384 44.9766C57.2141 45.1426 56.6341 45.8271 56.1783 46.2727L55.9298 46.5157C52.4496 50.2054 43.7908 55.7542 39.3992 57.5323C39.3992 57.5728 36.7891 58.6299 35.5462 58.6663H35.3805C33.4747 58.6663 31.6932 57.6173 30.7818 55.9162C30.2846 54.9806 29.8289 52.267 29.7875 52.2305C29.4146 49.7964 29.166 46.0702 29.166 41.9794C29.166 37.6902 29.4146 33.798 29.8703 31.4083C29.8703 31.3678 30.3261 29.1807 30.6161 28.4517C31.0718 27.4027 31.9004 26.5076 32.9361 25.9405C33.7647 25.5396 34.6348 25.333 35.5462 25.333C36.4991 25.3776 38.2806 25.981 38.9849 26.2646C43.6251 28.0467 52.4911 33.879 55.8883 37.4432C56.4683 38.0102 57.0898 38.7028 57.2555 38.8608C57.9598 39.7518 58.3327 40.8454 58.3327 42.0199Z" fill="white"/>
</svg>
