<svg width="84" height="84" viewBox="0 0 84 84" fill="none" xmlns="http://www.w3.org/2000/svg">
<path opacity="0.4" d="M83.6673 42.0198C83.6673 64.9736 64.9656 83.6663 42.0007 83.6663C19.0357 83.6663 0.333984 64.9736 0.333984 42.0198C0.333984 19.0257 19.0357 0.333008 42.0007 0.333008C64.9656 0.333008 83.6673 19.0257 83.6673 42.0198" fill="white"/>
<path d="M58.6667 42.0199C58.6667 43.073 58.3352 44.1301 57.6724 44.9766C57.5481 45.1426 56.968 45.8271 56.5123 46.2727L56.2637 46.5157C52.7836 50.2054 44.1248 55.7542 39.7332 57.5323C39.7332 57.5728 37.1231 58.6299 35.8802 58.6663H35.7145C33.8087 58.6663 32.0272 57.6173 31.1158 55.9162C30.6186 54.9806 30.1629 52.267 30.1214 52.2305C29.7486 49.7964 29.5 46.0702 29.5 41.9794C29.5 37.6902 29.7486 33.798 30.2043 31.4083C30.2043 31.3678 30.66 29.1807 30.95 28.4517C31.4058 27.4027 32.2344 26.5076 33.2701 25.9405C34.0987 25.5396 34.9688 25.333 35.8802 25.333C36.8331 25.3776 38.6146 25.981 39.3189 26.2646C43.959 28.0467 52.8251 33.879 56.2223 37.4432C56.8023 38.0102 57.4238 38.7028 57.5895 38.8608C58.2938 39.7518 58.6667 40.8454 58.6667 42.0199" fill="white"/>
</svg>
