<svg width="50" height="50" viewBox="0 0 50 50" fill="none" xmlns="http://www.w3.org/2000/svg">
<path d="M25 50C38.8071 50 50 38.8071 50 25C50 11.1929 38.8071 0 25 0C11.1929 0 0 11.1929 0 25C0 38.8071 11.1929 50 25 50Z" fill="#55ACEE"/>
<path d="M40.3123 17.9668C39.2409 18.4419 38.0885 18.7632 36.8799 18.9067C38.1139 18.1673 39.0609 16.9975 39.5079 15.6013C38.3532 16.2862 37.0737 16.7831 35.7132 17.051C34.6231 15.8901 33.07 15.1646 31.3503 15.1646C28.0507 15.1646 25.3746 17.8407 25.3746 21.1403C25.3746 21.6086 25.4276 22.0645 25.5301 22.5022C20.5638 22.253 16.1603 19.8742 13.2128 16.2577C12.6985 17.1401 12.4035 18.1673 12.4035 19.2623C12.4035 21.335 13.4592 23.1648 15.0618 24.2362C14.0827 24.2054 13.1607 23.9367 12.3554 23.4879C12.3549 23.5133 12.3549 23.5387 12.3549 23.5637C12.3549 26.4591 14.4156 28.874 17.1488 29.4226C16.6479 29.5599 16.1189 29.6325 15.5747 29.6325C15.1888 29.6325 14.8149 29.5955 14.4504 29.526C15.2106 31.8995 17.4171 33.6273 20.0326 33.6759C17.987 35.2789 15.4107 36.2339 12.6103 36.2339C12.129 36.2339 11.6521 36.2059 11.1855 36.1501C13.8287 37.8463 16.9705 38.8352 20.345 38.8352C31.3364 38.8352 37.3474 29.7297 37.3474 21.8323C37.3474 21.5734 37.3416 21.3154 37.33 21.0596C38.4985 20.2173 39.5114 19.1651 40.3123 17.9668Z" fill="#F1F2F2"/>
</svg>
