<svg width="74" height="74" viewBox="0 0 74 74" fill="none" xmlns="http://www.w3.org/2000/svg">
<g filter="url(#filter0_d)">
<path d="M37 1.5C30.7699 1.5 24.6797 3.34744 19.4995 6.80871C14.3194 10.27 10.282 15.1896 7.89781 20.9455C5.51365 26.7013 4.88984 33.0349 6.10528 39.1453C7.32071 45.2557 10.3208 50.8685 14.7261 55.2739C19.1315 59.6792 24.7443 62.6793 30.8547 63.8947C36.9651 65.1102 43.2987 64.4864 49.0545 62.1022C54.8104 59.718 59.73 55.6806 63.1913 50.5005C66.6526 45.3203 68.5 39.2301 68.5 33C68.5 24.6457 65.1813 16.6335 59.2739 10.7261C53.3665 4.81874 45.3543 1.5 37 1.5Z" fill="#FDFDFD" stroke="#D40000" stroke-width="3"/>
<path d="M38.7731 22.2382L38.7745 22.2396L53.76 37.2148L53.7615 37.2162C53.9955 37.4482 54.1813 37.7242 54.308 38.0282C54.4348 38.3322 54.5 38.6583 54.5 38.9876C54.5 39.3169 54.4348 39.643 54.308 39.947C54.1813 40.251 53.9955 40.527 53.7615 40.7589L53.7586 40.7618C53.5265 40.9957 53.2503 41.1814 52.946 41.3081C52.6416 41.4348 52.3152 41.5 51.9855 41.5C51.6558 41.5 51.3294 41.4348 51.0251 41.3081C50.7208 41.1814 50.4446 40.9957 50.2125 40.7618L50.2114 40.7608L37.3538 27.8821L37 27.5277L36.6462 27.8821L23.7886 40.7608L23.7875 40.7618C23.5554 40.9957 23.2792 41.1814 22.9749 41.3081C22.6706 41.4348 22.3442 41.5 22.0145 41.5C21.6848 41.5 21.3584 41.4348 21.054 41.3081C20.7497 41.1814 20.4735 40.9957 20.2414 40.7618L20.2385 40.759C20.0045 40.527 19.8187 40.251 19.692 39.947C19.5653 39.643 19.5 39.3169 19.5 38.9876C19.5 38.6583 19.5653 38.3322 19.692 38.0282C19.8187 37.7242 20.0045 37.4482 20.2385 37.2162L20.24 37.2148L35.2255 22.2396L35.2269 22.2382C35.4591 22.0043 35.7352 21.8186 36.0396 21.6919C36.3439 21.5652 36.6703 21.5 37 21.5C37.3297 21.5 37.6561 21.5652 37.9604 21.6919C38.2648 21.8186 38.5409 22.0043 38.7731 22.2382Z" fill="#D40000" stroke="#D40000"/>
</g>
<defs>
<filter id="filter0_d" x="0" y="0" width="74" height="74" filterUnits="userSpaceOnUse" color-interpolation-filters="sRGB">
<feFlood flood-opacity="0" result="BackgroundImageFix"/>
<feColorMatrix in="SourceAlpha" type="matrix" values="0 0 0 0 0 0 0 0 0 0 0 0 0 0 0 0 0 0 127 0" result="hardAlpha"/>
<feOffset dy="4"/>
<feGaussianBlur stdDeviation="2"/>
<feComposite in2="hardAlpha" operator="out"/>
<feColorMatrix type="matrix" values="0 0 0 0 0 0 0 0 0 0 0 0 0 0 0 0 0 0 0.25 0"/>
<feBlend mode="normal" in2="BackgroundImageFix" result="effect1_dropShadow"/>
<feBlend mode="normal" in="SourceGraphic" in2="effect1_dropShadow" result="shape"/>
</filter>
</defs>
</svg>
