<svg width="50" height="50" viewBox="0 0 50 50" fill="none" xmlns="http://www.w3.org/2000/svg">
<path fill-rule="evenodd" clip-rule="evenodd" d="M25 0C38.8076 0 50 11.1924 50 25C50 38.8076 38.8076 50 25 50C11.1924 50 0 38.8076 0 25C0 11.1924 11.1924 0 25 0Z" fill="#DD2A30"/>
<path fill-rule="evenodd" clip-rule="evenodd" d="M28.917 25.3633L22.7842 28.7275C22.5166 28.8711 22.2773 28.6787 22.2773 28.376V21.4697C22.2773 21.1631 22.5244 20.9707 22.791 21.1221L28.9668 24.6631C29.2402 24.8193 29.1934 25.2139 28.917 25.3633ZM38.6211 21.3965C38.6211 18.1211 35.9658 15.4658 32.6914 15.4658H17.3115C14.0361 15.4658 11.3809 18.1211 11.3809 21.3965V28.6035C11.3809 31.8789 14.0361 34.5342 17.3115 34.5342H32.6914C35.9658 34.5342 38.6211 31.8789 38.6211 28.6035V21.3965Z" fill="white"/>
</svg>
